<svg xmlns="http://www.w3.org/2000/svg" viewBox="0 0 320 320" width="320" height="320">
  <title>SOLOFTS — stacked vertical lockup</title>
  <defs><radialGradient id="pg2" cx="50%" cy="35%" r="60%">
    <stop offset="0%" stop-color="#FF7070"/><stop offset="100%" stop-color="#FF4D4D"/>
  </radialGradient></defs>
  <rect width="320" height="320" fill="#1A1A2E"/>
  <circle cx="160" cy="108" r="46" fill="none" stroke="#FF4D4D" stroke-width="1.5" opacity="0.22"/>
  <circle cx="160" cy="108" r="35" fill="none" stroke="#FF4D4D" stroke-width="0.75" opacity="0.14"/>
  <path d="M160 59.050000000000004 C140.78 59.050000000000004 129 72.07000000000001 129 94.08 C129 113.92 160 142.75 160 142.75 C160 142.75 191 113.92 191 94.08 C191 72.07000000000001 179.22 59.050000000000004 160 59.050000000000004 Z" fill="url(#pg2)"/>
  <circle cx="160" cy="94.08" r="11.78" fill="#1A1A2E"/>
  <g stroke="#FFB830" stroke-width="1.5" opacity="0.6"><line x1="160" y1="62" x2="160" y2="56"/><line x1="160" y1="154" x2="160" y2="160"/><line x1="206" y1="108" x2="212" y2="108"/><line x1="114" y1="108" x2="108" y2="108"/></g>
  <path d="M22 166V206H126V158Q126 90 183 90Q211 90 225.5 106.5Q240 123 240 160Q240 204 220.0 237.5Q200 271 146 318Q78 378 51.0 426.5Q24 475 24 536Q24 619 66.0 664.5Q108 710 188 710Q267 710 307.5 664.5Q348 619 348 534V505H244V541Q244 577 230.0 593.5Q216 610 189 610Q134 610 134 543Q134 505 154.5 472.0Q175 439 229 392Q298 332 324.0 283.0Q350 234 350 168Q350 82 307.5 36.0Q265 -10 184 -10Q104 -10 63.0 35.5Q22 81 22 166Z" transform="translate(76.41,238.00) scale(0.054000,-0.054000)" fill="#FFF8F0" />
  <path d="M33 166V534Q33 618 76.0 664.0Q119 710 200 710Q281 710 324.0 664.0Q367 618 367 534V166Q367 82 324.0 36.0Q281 -10 200 -10Q119 -10 76.0 36.0Q33 82 33 166ZM257 159V541Q257 610 200 610Q143 610 143 541V159Q143 90 200 90Q257 90 257 159Z" transform="translate(101.00,238.00) scale(0.054000,-0.054000)" fill="#FFF8F0" />
  <path d="M41 700H151V100H332V0H41Z" transform="translate(127.10,238.00) scale(0.054000,-0.054000)" fill="#FFF8F0" />
  <path d="M33 166V534Q33 618 76.0 664.0Q119 710 200 710Q281 710 324.0 664.0Q367 618 367 534V166Q367 82 324.0 36.0Q281 -10 200 -10Q119 -10 76.0 36.0Q33 82 33 166ZM257 159V541Q257 610 200 610Q143 610 143 541V159Q143 90 200 90Q257 90 257 159Z" transform="translate(150.17,238.00) scale(0.054000,-0.054000)" fill="#FFF8F0" />
  <path d="M41 700H332V600H151V405H293V305H151V0H41Z" transform="translate(176.27,238.00) scale(0.054000,-0.054000)" fill="#FF4D4D" />
  <path d="M127 600H12V700H352V600H237V0H127Z" transform="translate(199.35,238.00) scale(0.054000,-0.054000)" fill="#FFF8F0" />
  <path d="M22 166V206H126V158Q126 90 183 90Q211 90 225.5 106.5Q240 123 240 160Q240 204 220.0 237.5Q200 271 146 318Q78 378 51.0 426.5Q24 475 24 536Q24 619 66.0 664.5Q108 710 188 710Q267 710 307.5 664.5Q348 619 348 534V505H244V541Q244 577 230.0 593.5Q216 610 189 610Q134 610 134 543Q134 505 154.5 472.0Q175 439 229 392Q298 332 324.0 283.0Q350 234 350 168Q350 82 307.5 36.0Q265 -10 184 -10Q104 -10 63.0 35.5Q22 81 22 166Z" transform="translate(223.50,238.00) scale(0.054000,-0.054000)" fill="#FFF8F0" />
  <line x1="80" y1="250" x2="240" y2="250" stroke="#FFB830" stroke-width="1" opacity="0.4"/>
  <path d="M301 -12Q224 -12 167.0 16.0Q110 44 79.0 94.0Q48 144 48 210H136Q136 169 155.0 134.5Q174 100 210.5 79.5Q247 59 301 59Q348 59 381.5 74.5Q415 90 432.5 117.0Q450 144 450 178Q450 216 433.5 241.5Q417 267 388.0 283.5Q359 300 321.0 313.0Q283 326 239 340Q151 368 111.5 410.5Q72 453 72 520Q72 577 98.5 620.0Q125 663 174.5 687.5Q224 712 292 712Q359 712 408.5 687.0Q458 662 486.0 618.5Q514 575 514 518H426Q426 547 411.0 575.0Q396 603 365.5 621.5Q335 640 289 640Q251 641 221.5 627.5Q192 614 175.5 589.0Q159 564 159 528Q159 494 173.5 473.0Q188 452 215.5 437.5Q243 423 280.0 411.0Q317 399 362 384Q413 367 452.5 342.5Q492 318 514.5 280.0Q537 242 537 183Q537 133 510.5 88.5Q484 44 432.0 16.0Q380 -12 301 -12Z" transform="translate(68.07,268.00) scale(0.009500,-0.009500)" fill="#FFF8F0" opacity="0.45"/>
  <path d="M373 -12Q277 -12 204.0 33.5Q131 79 90.0 160.5Q49 242 49 350Q49 457 90.0 538.5Q131 620 204.0 666.0Q277 712 373 712Q471 712 544.0 666.0Q617 620 657.0 538.5Q697 457 697 350Q697 242 657.0 160.5Q617 79 544.0 33.5Q471 -12 373 -12ZM373 62Q445 62 498.5 96.5Q552 131 581.5 195.5Q611 260 611 350Q611 440 581.5 504.5Q552 569 498.5 603.0Q445 637 373 637Q302 637 248.5 603.0Q195 569 165.0 504.5Q135 440 135 350Q135 260 165.0 195.5Q195 131 248.5 96.5Q302 62 373 62Z" transform="translate(77.04,268.00) scale(0.009500,-0.009500)" fill="#FFF8F0" opacity="0.45"/>
  <path d="M77 0V700H161V67H487V0Z" transform="translate(87.53,268.00) scale(0.009500,-0.009500)" fill="#FFF8F0" opacity="0.45"/>
  <path d="M373 -12Q277 -12 204.0 33.5Q131 79 90.0 160.5Q49 242 49 350Q49 457 90.0 538.5Q131 620 204.0 666.0Q277 712 373 712Q471 712 544.0 666.0Q617 620 657.0 538.5Q697 457 697 350Q697 242 657.0 160.5Q617 79 544.0 33.5Q471 -12 373 -12ZM373 62Q445 62 498.5 96.5Q552 131 581.5 195.5Q611 260 611 350Q611 440 581.5 504.5Q552 569 498.5 603.0Q445 637 373 637Q302 637 248.5 603.0Q195 569 165.0 504.5Q135 440 135 350Q135 260 165.0 195.5Q195 131 248.5 96.5Q302 62 373 62Z" transform="translate(95.97,268.00) scale(0.009500,-0.009500)" fill="#FFF8F0" opacity="0.45"/>
  <path d="M77 0V700H503V631H161V385H452V317H161V0Z" transform="translate(112.41,268.00) scale(0.009500,-0.009500)" fill="#FFF8F0" opacity="0.45"/>
  <path d="M77 0V700H510V631H161V387H480V319H161V69H510V0Z" transform="translate(120.94,268.00) scale(0.009500,-0.009500)" fill="#FFF8F0" opacity="0.45"/>
  <path d="M77 0V700H175L413 207L649 700H748V0H664V549L444 92H381L161 545V0Z" transform="translate(129.74,268.00) scale(0.009500,-0.009500)" fill="#FFF8F0" opacity="0.45"/>
  <path d="M31 0 289 700H378L635 0H545L333 595L119 0ZM149 180 173 248H490L514 180Z" transform="translate(140.98,268.00) scale(0.009500,-0.009500)" fill="#FFF8F0" opacity="0.45"/>
  <path d="M77 0V700H161V67H487V0Z" transform="translate(150.70,268.00) scale(0.009500,-0.009500)" fill="#FFF8F0" opacity="0.45"/>
  <path d="M77 0V700H510V631H161V387H480V319H161V69H510V0Z" transform="translate(159.14,268.00) scale(0.009500,-0.009500)" fill="#FFF8F0" opacity="0.45"/>
  <path d="M240 0V631H31V700H533V631H324V0Z" transform="translate(173.90,268.00) scale(0.009500,-0.009500)" fill="#FFF8F0" opacity="0.45"/>
  <path d="M77 0V700H303Q385 700 437.0 672.5Q489 645 514.0 599.0Q539 553 539 495Q539 439 513.5 392.0Q488 345 435.0 317.0Q382 289 299 289H161V0ZM447 0 293 313H387L546 0ZM161 355H297Q377 355 414.5 394.0Q452 433 452 494Q452 556 415.5 592.5Q379 629 296 629H161Z" transform="translate(182.66,268.00) scale(0.009500,-0.009500)" fill="#FFF8F0" opacity="0.45"/>
  <path d="M31 0 289 700H378L635 0H545L333 595L119 0ZM149 180 173 248H490L514 180Z" transform="translate(191.74,268.00) scale(0.009500,-0.009500)" fill="#FFF8F0" opacity="0.45"/>
  <path d="M286 0 23 700H114L335 89L558 700H647L384 0Z" transform="translate(201.46,268.00) scale(0.009500,-0.009500)" fill="#FFF8F0" opacity="0.45"/>
  <path d="M77 0V700H510V631H161V387H480V319H161V69H510V0Z" transform="translate(211.22,268.00) scale(0.009500,-0.009500)" fill="#FFF8F0" opacity="0.45"/>
  <path d="M77 0V700H161V67H487V0Z" transform="translate(220.03,268.00) scale(0.009500,-0.009500)" fill="#FFF8F0" opacity="0.45"/>
  <path d="M77 0V700H510V631H161V387H480V319H161V69H510V0Z" transform="translate(228.47,268.00) scale(0.009500,-0.009500)" fill="#FFF8F0" opacity="0.45"/>
  <path d="M77 0V700H303Q385 700 437.0 672.5Q489 645 514.0 599.0Q539 553 539 495Q539 439 513.5 392.0Q488 345 435.0 317.0Q382 289 299 289H161V0ZM447 0 293 313H387L546 0ZM161 355H297Q377 355 414.5 394.0Q452 433 452 494Q452 556 415.5 592.5Q379 629 296 629H161Z" transform="translate(237.28,268.00) scale(0.009500,-0.009500)" fill="#FFF8F0" opacity="0.45"/>
  <path d="M301 -12Q224 -12 167.0 16.0Q110 44 79.0 94.0Q48 144 48 210H136Q136 169 155.0 134.5Q174 100 210.5 79.5Q247 59 301 59Q348 59 381.5 74.5Q415 90 432.5 117.0Q450 144 450 178Q450 216 433.5 241.5Q417 267 388.0 283.5Q359 300 321.0 313.0Q283 326 239 340Q151 368 111.5 410.5Q72 453 72 520Q72 577 98.5 620.0Q125 663 174.5 687.5Q224 712 292 712Q359 712 408.5 687.0Q458 662 486.0 618.5Q514 575 514 518H426Q426 547 411.0 575.0Q396 603 365.5 621.5Q335 640 289 640Q251 641 221.5 627.5Q192 614 175.5 589.0Q159 564 159 528Q159 494 173.5 473.0Q188 452 215.5 437.5Q243 423 280.0 411.0Q317 399 362 384Q413 367 452.5 342.5Q492 318 514.5 280.0Q537 242 537 183Q537 133 510.5 88.5Q484 44 432.0 16.0Q380 -12 301 -12Z" transform="translate(246.36,268.00) scale(0.009500,-0.009500)" fill="#FFF8F0" opacity="0.45"/>
</svg>
